<?xml version="1.0" encoding="iso-8859-1"?>

<!DOCTYPE svg PUBLIC "-//W3C//DTD SVG 1.1//EN" "http://www.w3.org/Graphics/SVG/1.1/DTD/svg11.dtd">
<!-- Uploaded to: SVG Repo, www.svgrepo.com, Generator: SVG Repo Mixer Tools -->
<svg fill="#000000" version="1.1" xmlns="http://www.w3.org/2000/svg" xmlns:xlink="http://www.w3.org/1999/xlink"  width="800px"
	 height="800px" viewBox="0 0 28 31" xml:space="preserve">
<g id="pine">
	<path d="M28,23.862c0-0.024-0.013-0.049-0.015-0.073c0.042-0.273-0.054-0.554-0.275-0.756l-6.912-6.247
		c2.672-0.513,4.402-1.315,4.402-2.222c0-0.02-0.01-0.039-0.012-0.059c0.033-0.219-0.043-0.442-0.221-0.605l-7.689-6.949
		c1.806-0.277,3.015-0.773,3.015-1.342c0-0.027-0.011-0.055-0.017-0.082c0.001-0.106-0.027-0.211-0.113-0.289l-5.534-5.003
		c-0.347-0.313-0.911-0.313-1.258,0L7.837,5.238C7.751,5.316,7.723,5.421,7.724,5.527C7.718,5.555,7.707,5.582,7.707,5.609
		c0,0.568,1.209,1.064,3.015,1.342L3.032,13.9c-0.178,0.163-0.254,0.387-0.221,0.605C2.81,14.525,2.8,14.545,2.8,14.564
		c0,0.906,1.73,1.709,4.402,2.222L0.29,23.033c-0.222,0.202-0.317,0.482-0.275,0.756C0.013,23.813,0,23.838,0,23.862
		c0,1.585,4.219,2.923,10,3.353V29c0,1.104,0.896,2,2,2h4c1.104,0,2-0.896,2-2v-1.785C23.781,26.785,28,25.447,28,23.862z"/>
</g>
<g id="Layer_1">
</g>
</svg>